<?xml version="1.0" encoding="utf-8"?>
<!-- Generator: Adobe Illustrator 19.1.0, SVG Export Plug-In . SVG Version: 6.00 Build 0)  -->
<svg version="1.1" id="Layer_1" xmlns="http://www.w3.org/2000/svg" xmlns:xlink="http://www.w3.org/1999/xlink" x="0px" y="0px"
	 viewBox="0 0 94.8019 45.1221" enable-background="new 0 0 94.8019 45.1221" xml:space="preserve">
<g>
	<g>
		<g>
			<path fill="#FFFFFF" d="M21.4526,20.9944c0-1.1383-0.9227-1.2411-2.061-1.2411s-2.061,0.1028-2.061,1.2411
				c0,0.9228,1.2105,2.1655,2.061,2.1655C20.202,23.1599,21.4526,21.876,21.4526,20.9944z"/>
		</g>
		<g>
			<path fill="#FFFFFF" d="M10.7579,5.1729l-1.0801-1.041C12.2423,1.4678,15.6935,0,19.3927,0c3.6982,0,7.1484,1.4668,9.7129,4.1299
				l-1.0801,1.041C25.7462,2.8037,22.6798,1.5,19.3927,1.5C16.1046,1.5,13.0382,2.8047,10.7579,5.1729z"/>
		</g>
		<g>
			<path fill="#FFFFFF" d="M19.3927,29.2461c-4.7568,0-9.4375-3.5107-11.9238-8.9443l1.3633-0.625
				c2.2432,4.9023,6.3887,8.0693,10.5605,8.0693c4.1709,0,8.3145-3.166,10.5576-8.0664l1.3633,0.625
				C28.8282,25.7363,24.1485,29.2461,19.3927,29.2461z"/>
		</g>
		<g>
			<g>
				<g>
					<path fill="#FFFFFF" d="M4.1778,22.4482c-0.8789,0-1.5508-0.2334-1.8857-0.3799c-1.1387-0.4971-1.9131-1.4873-2.1807-2.7881
						c-0.3262-1.583,0.0645-3.6611,1.1621-6.1748c1.1611-2.6611,2.6523-5.29,4.0918-7.2129C7.1564,3.4971,8.5675,2.5674,9.67,3.0498
						c1.5859,0.6914,2.0107,4.3398,2.1035,5.4414c0.2568,3.0664-0.2041,6.2197-1.2656,8.6514
						c-1.0938,2.5059-2.5449,4.1514-4.3125,4.8906C5.4552,22.3418,4.7696,22.4482,4.1778,22.4482z M9.0382,4.4219
						c-0.8076,0-3.875,3.5225-6.3896,9.2832c-0.958,2.1934-1.3271,4.0166-1.0684,5.2725c0.1719,0.834,0.6133,1.4111,1.3115,1.7158
						c0.2998,0.1299,1.3867,0.5146,2.7246-0.0439c1.3799-0.5771,2.5957-1.9971,3.5166-4.1064
						c2.2061-5.0537,0.9072-11.6006-0.0654-12.1191C9.0577,4.4219,9.048,4.4219,9.0382,4.4219z"/>
				</g>
			</g>
			<g>
				<g>
					<path fill="#FFFFFF" d="M34.6202,22.4424c-1.9814,0-4.5381-1.1611-6.3447-5.2998c-1.0615-2.4316-1.5225-5.585-1.2656-8.6514
						c0.0928-1.1016,0.5176-4.75,2.1035-5.4414c1.1074-0.4805,2.5117,0.4473,4.3047,2.8428
						c1.4395,1.9238,2.9307,4.5527,4.0918,7.2129c1.0977,2.5137,1.4883,4.5918,1.1621,6.1748
						c-0.2676,1.3008-1.042,2.291-2.1807,2.7881C35.9864,22.2891,35.3409,22.4424,34.6202,22.4424z M29.7296,4.4277
						c-0.0107,0-0.0215,0-0.0312,0.002c-0.9551,0.5127-2.2539,7.0596-0.0479,12.1133c2.4512,5.6152,5.8623,4.3164,6.2412,4.1504
						c0.6982-0.3047,1.1396-0.8818,1.3115-1.7158c0.2588-1.2559-0.1104-3.0791-1.0684-5.2725
						C33.6231,7.9502,30.5577,4.4277,29.7296,4.4277z"/>
				</g>
			</g>
		</g>
	</g>
	<g>
		<g>
			<path fill="#FFFFFF" d="M62.4669,12.7725c-0.2979,0-0.5791-0.1787-0.6963-0.4727l-3.918-9.8252
				c-0.1025-0.2549-0.0566-0.5449,0.1191-0.7568c0.1758-0.21,0.4482-0.3115,0.7227-0.2559l9.8379,1.9424
				c0.4062,0.0801,0.6709,0.4746,0.5898,0.8809c-0.0791,0.4072-0.4814,0.6709-0.8809,0.5898L59.756,3.2002l3.4072,8.5449
				c0.1533,0.3848-0.0342,0.8203-0.4189,0.9736C62.6534,12.7559,62.5597,12.7725,62.4669,12.7725z"/>
		</g>
		<g>
			<path fill="#FFFFFF" d="M64.8419,18.2266h-8.2734c-0.4141,0-0.75-0.3359-0.75-0.75s0.3359-0.75,0.75-0.75h8.2734
				c0.4141,0,0.75,0.3359,0.75,0.75S65.256,18.2266,64.8419,18.2266z"/>
		</g>
		<g>
			<path fill="#FFFFFF" d="M66.6388,22.1143h-8.6592c-0.4141,0-0.75-0.3359-0.75-0.75s0.3359-0.75,0.75-0.75h8.6592
				c0.4141,0,0.75,0.3359,0.75,0.75S67.0528,22.1143,66.6388,22.1143z"/>
		</g>
		<g>
			<path fill="#FFFFFF" d="M92.6417,22.1143h-8.6602c-0.4141,0-0.75-0.3359-0.75-0.75s0.3359-0.75,0.75-0.75h8.6602
				c0.4141,0,0.75,0.3359,0.75,0.75S93.0558,22.1143,92.6417,22.1143z"/>
		</g>
		<g>
			<path fill="#FFFFFF" d="M88.1544,12.7725c-0.0928,0-0.1865-0.0166-0.2773-0.0537c-0.3848-0.1533-0.5723-0.5889-0.4189-0.9736
				l3.4072-8.5449L82.379,4.875c-0.4062,0.083-0.8008-0.1836-0.8809-0.5898c-0.0811-0.4062,0.1836-0.8008,0.5898-0.8809
				l9.8389-1.9424c0.2734-0.0547,0.5469,0.0459,0.7227,0.2559c0.1758,0.2119,0.2217,0.502,0.1191,0.7568l-3.918,9.8252
				C88.7335,12.5938,88.4523,12.7725,88.1544,12.7725z"/>
		</g>
		<g>
			<path fill="#FFFFFF" d="M94.0519,18.2266h-8.2734c-0.4141,0-0.75-0.3359-0.75-0.75s0.3359-0.75,0.75-0.75h8.2734
				c0.4141,0,0.75,0.3359,0.75,0.75S94.4659,18.2266,94.0519,18.2266z"/>
		</g>
		<g>
			<path fill="#FFFFFF" d="M75.3107,29.5547c-7.749,0-14.0537-6.3047-14.0537-14.0537c0-1.2441,0.1631-2.4805,0.4844-3.6738
				l1.4492,0.3906c-0.2881,1.0664-0.4336,2.1709-0.4336,3.2832c0,6.9219,5.6318,12.5537,12.5537,12.5537V29.5547z"/>
		</g>
		<g>
			<path fill="#FFFFFF" d="M68.7775,4.7793L67.9962,3.5c2.1963-1.3428,4.7256-2.0527,7.3145-2.0527v1.5
				C72.9982,2.9473,70.7394,3.5811,68.7775,4.7793z"/>
		</g>
		<g>
			<path fill="#FFFFFF" d="M75.3107,29.5547v-1.5c6.9219,0,12.5527-5.6318,12.5527-12.5537c0-1.1152-0.1465-2.2207-0.4336-3.2871
				l1.4473-0.3906c0.3232,1.1924,0.4863,2.4307,0.4863,3.6777C89.3634,23.25,83.0597,29.5547,75.3107,29.5547z"/>
		</g>
		<g>
			<path fill="#FFFFFF" d="M81.8439,4.7793c-1.9629-1.1982-4.2217-1.832-6.5332-1.832v-1.5c2.5869,0,5.1172,0.71,7.3145,2.0527
				L81.8439,4.7793z"/>
		</g>
	</g>
	<g>
		<rect x="33.4308" y="6.3604" fill="#FFFFFF" width="26.8477" height="1.5"/>
	</g>
	<g>
		<path fill="#FFFFFF" d="M32.7442,45.1221c-1.7529,0-3.1797-1.4268-3.1797-3.1797s1.4268-3.1797,3.1797-3.1797
			c0.4141,0,0.75,0.3359,0.75,0.75s-0.3359,0.75-0.75,0.75c-0.9258,0-1.6797,0.7539-1.6797,1.6797s0.7539,1.6797,1.6797,1.6797
			c0.4141,0,0.75,0.3359,0.75,0.75S33.1583,45.1221,32.7442,45.1221z"/>
	</g>
	<g>
		<path fill="#FFFFFF" d="M32.7442,40.2627c-0.4141,0-0.75-0.3359-0.75-0.75V25.3408c0-0.4141,0.3359-0.75,0.75-0.75
			s0.75,0.3359,0.75,0.75v14.1719C33.4942,39.9268,33.1583,40.2627,32.7442,40.2627z"/>
	</g>
	<g>
		<path fill="#FFFFFF" d="M35.3517,45.1221h-2.6074c-0.4141,0-0.75-0.3359-0.75-0.75s0.3359-0.75,0.75-0.75h2.6074
			c0.6846,0,1.2412-0.5566,1.2412-1.2412v-17.04c0-0.4141,0.3359-0.75,0.75-0.75s0.75,0.3359,0.75,0.75v17.04
			C38.0929,43.8926,36.8634,45.1221,35.3517,45.1221z"/>
	</g>
	<g>
		<path fill="#FFFFFF" d="M33.6202,45.1221h-4.3896c-1.7529,0-3.1797-1.4268-3.1797-3.1797s1.4268-3.1797,3.1797-3.1797
			c0.4141,0,0.75,0.3359,0.75,0.75s-0.3359,0.75-0.75,0.75c-0.9258,0-1.6797,0.7539-1.6797,1.6797s0.7539,1.6797,1.6797,1.6797
			h4.3896c0.4141,0,0.75,0.3359,0.75,0.75S34.0343,45.1221,33.6202,45.1221z"/>
	</g>
	<g>
		<path fill="#FFFFFF" d="M29.2306,40.2627c-0.4141,0-0.75-0.3359-0.75-0.75V25.3408c0-0.4141,0.3359-0.75,0.75-0.75
			s0.75,0.3359,0.75,0.75v14.1719C29.9806,39.9268,29.6446,40.2627,29.2306,40.2627z"/>
	</g>
	<g>
		<path fill="#FFFFFF" d="M60.3448,45.1221c-0.4141,0-0.75-0.3359-0.75-0.75s0.3359-0.75,0.75-0.75
			c0.9258,0,1.6797-0.7539,1.6797-1.6797s-0.7539-1.6797-1.6797-1.6797c-0.4141,0-0.75-0.3359-0.75-0.75s0.3359-0.75,0.75-0.75
			c1.7529,0,3.1797,1.4268,3.1797,3.1797S62.0978,45.1221,60.3448,45.1221z"/>
	</g>
	<g>
		<path fill="#FFFFFF" d="M60.3448,40.2627c-0.4141,0-0.75-0.3359-0.75-0.75V25.3408c0-0.4141,0.3359-0.75,0.75-0.75
			s0.75,0.3359,0.75,0.75v14.1719C61.0948,39.9268,60.7589,40.2627,60.3448,40.2627z"/>
	</g>
	<g>
		<path fill="#FFFFFF" d="M60.3448,45.1221h-2.6074c-1.5117,0-2.7412-1.2295-2.7412-2.7412v-17.04c0-0.4141,0.3359-0.75,0.75-0.75
			s0.75,0.3359,0.75,0.75v17.04c0,0.6846,0.5566,1.2412,1.2412,1.2412h2.6074c0.4141,0,0.75,0.3359,0.75,0.75
			S60.7589,45.1221,60.3448,45.1221z"/>
	</g>
	<g>
		<path fill="#FFFFFF" d="M63.8585,45.1221h-4.3896c-0.4141,0-0.75-0.3359-0.75-0.75s0.3359-0.75,0.75-0.75h4.3896
			c0.9258,0,1.6797-0.7539,1.6797-1.6797s-0.7539-1.6797-1.6797-1.6797c-0.4141,0-0.75-0.3359-0.75-0.75s0.3359-0.75,0.75-0.75
			c1.7529,0,3.1797,1.4268,3.1797,3.1797S65.6114,45.1221,63.8585,45.1221z"/>
	</g>
	<g>
		<path fill="#FFFFFF" d="M63.8585,40.2627c-0.4141,0-0.75-0.3359-0.75-0.75V25.3408c0-0.4141,0.3359-0.75,0.75-0.75
			c0.4141,0,0.75,0.3359,0.75,0.75v14.1719C64.6085,39.9268,64.2726,40.2627,63.8585,40.2627z"/>
	</g>
	<g>
		<rect x="60.3448" y="24.5908" fill="#FFFFFF" width="6.2939" height="1.5"/>
	</g>
	<g>
		<rect x="37.3429" y="24.5908" fill="#FFFFFF" width="18.4033" height="1.5"/>
	</g>
	<g>
		<rect x="26.8009" y="24.5908" fill="#FFFFFF" width="5.9434" height="1.5"/>
	</g>
</g>
</svg>
